<svg width="147" height="58" viewBox="0 0 147 58" fill="none" xmlns="http://www.w3.org/2000/svg">
<path d="M55.216 19.2H58.312C59.032 19.2 59.736 19.28 60.424 19.44C61.112 19.6 61.72 19.856 62.248 20.208C62.792 20.56 63.224 21.024 63.544 21.6C63.864 22.176 64.024 22.888 64.024 23.736C64.024 24.408 63.88 25.08 63.592 25.752C63.32 26.408 62.896 26.976 62.32 27.456C61.744 27.92 61 28.2 60.088 28.296C60.6 28.456 61.064 28.744 61.48 29.16C61.912 29.576 62.264 29.992 62.536 30.408C62.552 30.44 62.64 30.584 62.8 30.84C62.976 31.096 63.184 31.416 63.424 31.8C63.68 32.168 63.944 32.544 64.216 32.928C64.488 33.312 64.736 33.648 64.96 33.936C65.312 34.368 65.632 34.72 65.92 34.992C66.208 35.248 66.512 35.44 66.832 35.568C67.152 35.68 67.52 35.744 67.936 35.76V36H65.584C64.72 36 63.936 35.928 63.232 35.784C62.528 35.624 61.904 35.36 61.36 34.992C60.816 34.624 60.344 34.128 59.944 33.504C59.816 33.312 59.672 33.072 59.512 32.784C59.368 32.48 59.216 32.16 59.056 31.824C58.896 31.488 58.736 31.168 58.576 30.864C58.432 30.544 58.304 30.256 58.192 30C58.08 29.744 58 29.544 57.952 29.4C57.744 28.888 57.496 28.504 57.208 28.248C56.936 27.992 56.64 27.84 56.32 27.792V27.552C56.368 27.552 56.464 27.552 56.608 27.552C56.752 27.552 56.904 27.552 57.064 27.552C57.496 27.552 57.912 27.464 58.312 27.288C58.728 27.112 59.096 26.824 59.416 26.424C59.736 26.024 59.96 25.472 60.088 24.768C60.12 24.624 60.144 24.456 60.16 24.264C60.192 24.072 60.2 23.856 60.184 23.616C60.136 22.464 59.848 21.624 59.32 21.096C58.792 20.552 58.136 20.272 57.352 20.256C57.128 20.24 56.88 20.24 56.608 20.256C56.352 20.256 56.112 20.256 55.888 20.256C55.68 20.256 55.536 20.256 55.456 20.256C55.456 20.24 55.432 20.152 55.384 19.992C55.352 19.816 55.312 19.64 55.264 19.464C55.232 19.288 55.216 19.2 55.216 19.2ZM55.528 19.2V36H51.928V19.2H55.528ZM52 34.248V36H50.08V35.76C50.096 35.76 50.144 35.76 50.224 35.76C50.32 35.76 50.376 35.76 50.392 35.76C50.808 35.76 51.16 35.616 51.448 35.328C51.752 35.024 51.912 34.664 51.928 34.248H52ZM52 20.952H51.928C51.912 20.536 51.752 20.184 51.448 19.896C51.16 19.592 50.808 19.44 50.392 19.44C50.376 19.44 50.32 19.44 50.224 19.44C50.144 19.44 50.096 19.44 50.08 19.44V19.2H52V20.952ZM55.456 34.248H55.528C55.528 34.664 55.68 35.024 55.984 35.328C56.288 35.616 56.648 35.76 57.064 35.76C57.096 35.76 57.152 35.76 57.232 35.76C57.312 35.76 57.352 35.76 57.352 35.76V36H55.456V34.248ZM75.8785 19.272V36H72.2785V19.272H75.8785ZM81.7585 19.176V20.184H66.3985V19.176H81.7585ZM81.7585 20.112V22.944L81.5185 22.92V22.656C81.5185 21.904 81.2945 21.312 80.8465 20.88C80.4145 20.432 79.8225 20.2 79.0705 20.184V20.112H81.7585ZM81.7585 18.744V19.44L78.8305 19.176C79.1825 19.176 79.5505 19.152 79.9345 19.104C80.3345 19.056 80.7025 19 81.0385 18.936C81.3745 18.872 81.6145 18.808 81.7585 18.744ZM72.3505 34.248V36H70.4305V35.76C70.4305 35.76 70.4785 35.76 70.5745 35.76C70.6865 35.76 70.7425 35.76 70.7425 35.76C71.1585 35.76 71.5105 35.616 71.7985 35.328C72.1025 35.024 72.2625 34.664 72.2785 34.248H72.3505ZM75.8065 34.248H75.8785C75.8945 34.664 76.0465 35.024 76.3345 35.328C76.6385 35.616 76.9985 35.76 77.4145 35.76C77.4145 35.76 77.4625 35.76 77.5585 35.76C77.6705 35.76 77.7265 35.76 77.7265 35.76V36H75.8065V34.248ZM69.0625 20.112V20.184C68.3265 20.2 67.7345 20.432 67.2865 20.88C66.8545 21.312 66.6385 21.904 66.6385 22.656V22.92L66.3985 22.944V20.112H69.0625ZM66.3985 18.744C66.5585 18.808 66.7985 18.872 67.1185 18.936C67.4545 19 67.8225 19.056 68.2225 19.104C68.6225 19.152 68.9905 19.176 69.3265 19.176L66.3985 19.44V18.744ZM92.4439 18.864C94.3639 18.864 96.0279 19.224 97.4359 19.944C98.8599 20.648 99.9559 21.648 100.724 22.944C101.508 24.24 101.9 25.792 101.9 27.6C101.9 29.392 101.508 30.944 100.724 32.256C99.9559 33.552 98.8599 34.56 97.4359 35.28C96.0279 35.984 94.3639 36.336 92.4439 36.336C90.5239 36.336 88.8519 35.984 87.4279 35.28C86.0199 34.56 84.9319 33.552 84.1639 32.256C83.3959 30.96 83.0119 29.408 83.0119 27.6C83.0119 25.808 83.3959 24.264 84.1639 22.968C84.9319 21.656 86.0199 20.648 87.4279 19.944C88.8519 19.224 90.5239 18.864 92.4439 18.864ZM92.4439 35.328C93.5799 35.328 94.5559 35.016 95.3719 34.392C96.1879 33.752 96.8199 32.856 97.2679 31.704C97.7159 30.552 97.9399 29.184 97.9399 27.6C97.9399 26.016 97.7159 24.648 97.2679 23.496C96.8199 22.344 96.1879 21.456 95.3719 20.832C94.5559 20.192 93.5799 19.872 92.4439 19.872C91.3239 19.872 90.3479 20.192 89.5159 20.832C88.6999 21.456 88.0679 22.344 87.6199 23.496C87.1719 24.648 86.9479 26.016 86.9479 27.6C86.9479 29.184 87.1719 30.552 87.6199 31.704C88.0679 32.856 88.6999 33.752 89.5159 34.392C90.3479 35.016 91.3239 35.328 92.4439 35.328ZM110.988 36.48L103.044 19.344H107.34L112.476 31.848L110.988 36.48ZM110.988 36.48L110.916 33.552L117.012 19.272H118.74L112.38 33.336C112.348 33.432 112.268 33.616 112.14 33.888C112.028 34.144 111.9 34.44 111.756 34.776C111.612 35.112 111.484 35.44 111.372 35.76C111.276 36.064 111.22 36.304 111.204 36.48H110.988ZM116.292 20.952C116.5 20.472 116.476 20.104 116.22 19.848C115.964 19.576 115.684 19.44 115.38 19.44H115.164V19.2H120.3V19.44C120.3 19.44 120.26 19.44 120.18 19.44C120.116 19.44 120.084 19.44 120.084 19.44C119.732 19.44 119.356 19.56 118.956 19.8C118.572 20.024 118.252 20.408 117.996 20.952H116.292ZM108.012 20.952H103.788C103.532 20.408 103.204 20.024 102.804 19.8C102.42 19.56 102.044 19.44 101.676 19.44C101.676 19.44 101.644 19.44 101.58 19.44C101.516 19.44 101.484 19.44 101.484 19.44V19.2H109.116V19.44H108.9C108.596 19.44 108.324 19.576 108.084 19.848C107.86 20.104 107.836 20.472 108.012 20.952ZM126.073 19.2V36H122.473V19.2H126.073ZM122.545 34.248V36H120.625V35.76C120.625 35.76 120.673 35.76 120.769 35.76C120.881 35.76 120.937 35.76 120.937 35.76C121.353 35.76 121.705 35.616 121.993 35.328C122.297 35.024 122.457 34.664 122.473 34.248H122.545ZM122.545 20.952H122.473C122.457 20.536 122.297 20.184 121.993 19.896C121.705 19.592 121.353 19.44 120.937 19.44C120.937 19.44 120.881 19.44 120.769 19.44C120.673 19.44 120.625 19.44 120.625 19.44V19.2H122.545V20.952ZM126.001 34.248H126.073C126.089 34.664 126.241 35.024 126.529 35.328C126.833 35.616 127.193 35.76 127.609 35.76C127.609 35.76 127.657 35.76 127.753 35.76C127.849 35.76 127.905 35.76 127.921 35.76V36H126.001V34.248ZM126.001 20.952V19.2H127.921V19.44C127.905 19.44 127.849 19.44 127.753 19.44C127.657 19.44 127.609 19.44 127.609 19.44C127.193 19.44 126.833 19.592 126.529 19.896C126.241 20.184 126.089 20.536 126.073 20.952H126.001ZM137.254 18.72L145.102 35.856H140.782L135.79 23.352L137.254 18.72ZM132.094 34.248C131.966 34.568 131.942 34.84 132.022 35.064C132.102 35.288 132.238 35.464 132.43 35.592C132.622 35.704 132.814 35.76 133.006 35.76H133.222V36H128.086V35.76C128.086 35.76 128.126 35.76 128.206 35.76C128.27 35.76 128.302 35.76 128.302 35.76C128.67 35.76 129.046 35.648 129.43 35.424C129.83 35.184 130.158 34.792 130.414 34.248H132.094ZM137.254 18.72L137.35 21.648L131.398 35.928H129.646L135.862 21.864C135.91 21.768 135.99 21.592 136.102 21.336C136.23 21.064 136.358 20.76 136.486 20.424C136.63 20.088 136.758 19.768 136.87 19.464C136.982 19.144 137.038 18.896 137.038 18.72H137.254ZM139.774 30.288V31.296H132.718V30.288H139.774ZM140.134 34.248H144.334C144.606 34.792 144.934 35.184 145.318 35.424C145.702 35.648 146.078 35.76 146.446 35.76C146.446 35.76 146.478 35.76 146.542 35.76C146.606 35.76 146.638 35.76 146.638 35.76V36H139.006V35.76H139.222C139.542 35.76 139.822 35.632 140.062 35.376C140.302 35.104 140.326 34.728 140.134 34.248Z" fill="black"/>
<path d="M31.999 3.41016C37.7705 17.3923 42.318 28.4298 45.7109 36.2275C47.4081 40.128 48.8068 43.1943 49.918 45.4033C50.474 46.5087 50.9473 47.3785 51.3418 48.0215C51.6983 48.6026 51.9417 48.9109 52.0713 49.0479C54.1771 50.3911 55.648 50.7057 57.1016 50.3984C58.7208 50.056 60.5914 48.8969 63.3604 46.5918L65.5732 48.5693C62.2805 53.5726 59.1319 56.6359 55.1631 57.1641C51.2731 57.6816 47.1319 55.6713 42.1133 52.2188L42.0127 52.1494L41.9248 52.0654C35.9787 46.3549 31.4942 42.4597 27.9072 40.2129C24.3114 37.9605 21.9456 37.5689 20.0566 38.249C19.955 38.2856 19.8535 38.3264 19.752 38.3701C17.2477 44.1487 14.7441 48.8141 11.9023 52.0654C8.96609 55.4249 5.58595 57.3616 1.45312 57.377C0.98055 57.4484 0.490402 57.4509 0 57.3457L0.628906 54.4121C0.720739 54.4318 0.859011 54.44 1.05957 54.4033C1.67707 54.2902 2.5907 53.8124 3.76855 52.832C4.91108 51.881 6.16297 50.5767 7.45215 49.0371C10.0282 45.9606 12.6481 42.0746 14.7197 38.5488C14.7354 38.5222 14.7499 38.4945 14.7656 38.4678C14.025 38.3308 13.3324 38.1099 12.6602 37.8018C11.3134 37.1844 10.1233 36.2535 8.86133 35.1768L10.6055 32.749C11.5117 33.2919 12.2649 33.5102 13.2852 33.4531C14.3033 33.3961 15.6328 33.0603 17.6465 32.3301L29.2207 3.4248L30.5918 0L31.999 3.41016ZM22.2363 34.0879C26.5254 33.9461 28.6182 33.4822 38.0781 39.6963L36.7979 34.501L30.3965 13.0732L22.2363 34.0879Z" fill="black"/>
</svg>
